<svg id="visual" viewBox="0 0 900 600" width="900" height="600" xmlns="http://www.w3.org/2000/svg" xmlns:xlink="http://www.w3.org/1999/xlink" version="1.1"><path d="M449 600L483.5 550C518 500 587 400 629 300C671 200 686 100 693.5 50L701 0L900 0L900 50C900 100 900 200 900 300C900 400 900 500 900 550L900 600Z" fill="#3fbf82"></path><path d="M440 600L476 550C512 500 584 400 576.5 300C569 200 482 100 438.5 50L395 0L702 0L694.5 50C687 100 672 200 630 300C588 400 519 500 484.5 550L450 600Z" fill="#02a05e"></path><path d="M0 600L0 550C0 500 0 400 0 300C0 200 0 100 0 50L0 0L396 0L439.5 50C483 100 570 200 577.5 300C585 400 513 500 477 550L441 600Z" fill="#007547"></path></svg>