<?xml version="1.0" encoding="utf-8"?>
<!-- Generator: Adobe Illustrator 26.5.2, SVG Export Plug-In . SVG Version: 6.00 Build 0)  -->
<svg version="1.1" id="Layer_1" xmlns:svgjs="http://svgjs.com/svgjs"
	 xmlns="http://www.w3.org/2000/svg" xmlns:xlink="http://www.w3.org/1999/xlink" x="0px" y="0px" viewBox="0 0 512 512"
	 style="enable-background:new 0 0 512 512;" xml:space="preserve">
<style type="text/css">
	.st0{fill:#FFFFFF;}
</style>
<g>
	<path class="st0" d="M182.1,106c-11.8-0.2-21.5,9.2-21.8,21c-0.1,6.5,2.7,12.7,7.7,16.8l130.5,111.8L168,367.3
		c-9.5,7-11.6,20.3-4.7,29.9c7,9.5,20.3,11.6,29.9,4.7c0.9-0.7,1.8-1.4,2.6-2.3L345.1,272c9-7.7,10-21.2,2.4-30.1
		c-0.7-0.9-1.5-1.6-2.4-2.4l-149.3-128C192,108.1,187.1,106.1,182.1,106z"/>
</g>
</svg>
